<svg width="694.8750488281249px" height="230.40001220703124px" xmlns="http://www.w3.org/2000/svg" viewBox="-97.43752441406247 -40.20000610351562 694.8750488281249 230.40001220703124" style="background: rgb(6, 102, 187);" preserveAspectRatio="xMidYMid"><defs><linearGradient id="editing-outline-gradient" x1="-0.30901699437494745" x2="1.3090169943749475" y1="-0.08778525229247314" y2="1.0877852522924731"><stop offset="0" stop-color="#ffffff"></stop><stop offset="1" stop-color="#ffffff"></stop></linearGradient><filter id="editing-outline" x="-100%" y="-100%" width="300%" height="300%"><feMorphology in="SourceGraphic" operator="dilate" radius="4" result="outline"></feMorphology><feComposite operator="out" in="outline" in2="SourceAlpha"></feComposite></filter></defs><g filter="url(#editing-outline)"><g transform="translate(2.6899900436401367, 132.18999338150024)"><path d="M59.05-20.48L59.05-20.48L59.05-20.48Q61.58-17.29 61.58-12.10L61.58-12.10L61.58-12.10Q61.58-4.92 56.26-1.13L56.26-1.13L56.26-1.13Q50.94 2.66 42.56 2.66L42.56 2.66L42.56 2.66Q37.77 2.66 30.46 1.60L30.46 1.60L30.46 1.60Q16.09-0.67 11.70-0.67L11.70-0.67L11.70-0.67Q7.32-0.67 5.59-0.47L5.59-0.47L5.59-0.47Q3.86-0.27 1.06 0L1.06 0L17.42-87.78L74.75-87.78L74.75-87.78Q74.75-79.67 70.82-75.41L70.82-75.41L70.82-75.41Q66.90-71.16 59.19-71.16L59.19-71.16L59.19-71.16Q51.47-71.16 43.62-74.75L43.62-74.75L39.50-51.47L63.18-51.47L63.18-51.47Q63.18-44.42 59.72-40.50L59.72-40.50L59.72-40.50Q56.26-36.58 50.47-36.58L50.47-36.58L50.47-36.58Q44.69-36.58 41.10-37.91L41.10-37.91L41.10-37.91Q37.51-39.23 37.11-39.63L37.11-39.63L32.32-14.50L32.32-14.50Q35.51-14.10 41.50-14.10L41.50-14.10L41.50-14.10Q51.74-14.10 59.05-20.48ZM91.50 0.40L91.50 0.40L91.50 0.40Q87.25 2.66 81.40 2.66L81.40 2.66L81.40 2.66Q75.54 2.66 72.35-0.33L72.35-0.33L72.35-0.33Q69.16-3.33 69.16-9.11L69.16-9.11L69.16-9.11Q69.16-14.90 73.22-20.55L73.22-20.55L73.22-20.55Q77.27-26.20 83.32-29.39L83.32-29.39L83.32-29.39Q89.38-32.59 93.63-34.45L93.63-34.45L85.25-53.73L85.25-53.73Q82.99-58.65 78.74-58.65L78.74-58.65L77.67-58.52L77.27-58.52L77.27-58.52Q78.07-63.18 83.52-66.77L83.52-66.77L83.52-66.77Q88.98-70.49 95.23-70.49L95.23-70.49L95.23-70.49Q105.34-70.49 109.99-60.38L109.99-60.38L111.06-58.25L116.77-44.16L116.77-44.16Q120.37-45.75 121.89-48.74L121.89-48.74L121.89-48.74Q123.42-51.74 123.42-57.66L123.42-57.66L123.42-57.66Q123.42-63.57 120.23-67.30L120.23-67.30L120.23-67.30Q125.29-70.49 131.94-70.49L131.94-70.49L131.94-70.49Q143.91-70.49 143.91-58.92L143.91-58.92L143.91-58.92Q143.91-46.28 128.08-38.97L128.08-38.97L120.10-35.25L127.28-16.76L127.28-16.76Q129.41-11.17 133.27-8.78L133.27-8.78L133.27-8.78Q134.86-7.71 136.72-7.58L136.72-7.58L136.72-7.58Q132.73-1.06 124.09 1.86L124.09 1.86L124.09 1.86Q121.43 2.66 117.84 2.66L117.84 2.66L117.84 2.66Q114.25 2.66 110.12 0.20L110.12 0.20L110.12 0.20Q106.00-2.26 104.54-6.12L104.54-6.12L97.22-25.14L97.22-25.14Q89.78-21.81 89.78-9.71L89.78-9.71L89.78-9.71Q89.78-4.12 91.50 0.40ZM209.47-9.11L209.47-9.11L209.47-9.11Q203.89-3.46 196.24-0.40L196.24-0.40L196.24-0.40Q188.59 2.66 181.01 2.66L181.01 2.66L181.01 2.66Q173.43 2.66 170.77 1.33L170.77 1.33L166.65 23.94L139.65 26.60L158.00-67.83L179.68-70.09L177.95-60.91L177.95-60.91Q183.54-70.36 195.11-70.36L195.11-70.36L195.11-70.36Q208.14-70.36 215.06-61.98L215.06-61.98L215.06-61.98Q221.18-54.40 221.18-42.83L221.18-42.83L221.18-42.83Q221.18-31.26 218.12-23.01L218.12-23.01L218.12-23.01Q215.06-14.76 209.47-9.11ZM179.42-46.42L172.37-7.45L172.37-7.45Q175.16-5.05 178.62-5.05L178.62-5.05L178.62-5.05Q182.08-5.05 184.07-6.38L184.07-6.38L184.07-6.38Q186.07-7.71 187.53-10.37L187.53-10.37L187.53-10.37Q191.52-17.56 194.71-39.37L194.71-39.37L194.71-39.37Q195.64-45.75 195.64-52.00L195.64-52.00L195.64-52.00Q195.64-58.25 194.25-60.25L194.25-60.25L194.25-60.25Q192.85-62.24 190.19-62.24L190.19-62.24L190.19-62.24Q182.08-62.24 179.42-46.42L179.42-46.42ZM270.79-37.37L270.79-37.37L270.79-37.37Q275.58-45.89 275.58-54.53L275.58-54.53L275.58-54.53Q275.58-60.25 271.45-60.25L271.45-60.25L271.45-60.25Q268.26-60.25 264.94-54.80L264.94-54.80L264.94-54.80Q261.48-49.34 260.41-42.29L260.41-42.29L253.50 0L225.97 2.66L239.53-67.83L261.48-70.49L259.08-57.06L259.08-57.06Q265.60-70.49 280.23-70.49L280.23-70.49L280.23-70.49Q287.94-70.49 292.13-66.50L292.13-66.50L292.13-66.50Q296.32-62.51 296.32-54.33L296.32-54.33L296.32-54.33Q296.32-46.15 290.94-40.96L290.94-40.96L290.94-40.96Q285.55-35.78 276.37-35.78L276.37-35.78L276.37-35.78Q272.38-35.78 270.79-37.37ZM352.32-22.48L352.32-22.48L352.32-22.48Q355.64-20.22 355.64-15.23L355.64-15.23L355.64-15.23Q355.64-10.24 353.12-7.05L353.12-7.05L353.12-7.05Q350.59-3.86 346.47-1.73L346.47-1.73L346.47-1.73Q337.95 2.66 328.78 2.66L328.78 2.66L328.78 2.66Q319.60 2.66 314.21 0.67L314.21 0.67L314.21 0.67Q308.83-1.33 305.24-5.05L305.24-5.05L305.24-5.05Q298.19-12.10 298.19-25.00L298.19-25.00L298.19-25.00Q298.19-45.09 309.09-57.32L309.09-57.32L309.09-57.32Q320.80-70.49 341.15-70.49L341.15-70.49L341.15-70.49Q353.78-70.49 360.03-65.17L360.03-65.17L360.03-65.17Q364.69-61.18 364.69-54.66L364.69-54.66L364.69-54.66Q364.69-31.26 324.25-31.26L324.25-31.26L324.25-31.26Q323.72-27.80 323.72-24.87L323.72-24.87L323.72-24.87Q323.72-18.75 326.45-16.43L326.45-16.43L326.45-16.43Q329.18-14.10 334.23-14.10L334.23-14.10L334.23-14.10Q339.28-14.10 344.67-16.43L344.67-16.43L344.67-16.43Q350.06-18.75 352.32-22.48ZM325.19-36.97L325.19-36.97L325.19-36.97Q334.63-36.97 340.08-42.83L340.08-42.83L340.08-42.83Q345.53-48.41 345.53-57.32L345.53-57.32L345.53-57.32Q345.53-60.38 344.40-62.04L344.40-62.04L344.40-62.04Q343.27-63.71 341.01-63.71L341.01-63.71L341.01-63.71Q338.75-63.71 336.82-62.84L336.82-62.84L336.82-62.84Q334.89-61.98 332.90-59.05L332.90-59.05L332.90-59.05Q327.98-52.40 325.19-36.97ZM408.98-46.68L408.98-46.68L408.98-46.68Q410.84-51.60 410.84-55.86L410.84-55.86L410.84-55.86Q410.84-63.71 404.45-63.71L404.45-63.71L404.45-63.71Q401.13-63.71 398.40-60.71L398.40-60.71L398.40-60.71Q395.68-57.72 395.68-54.00L395.68-54.00L395.68-54.00Q395.68-51.34 397.80-49.21L397.80-49.21L397.80-49.21Q400.86-46.28 408.71-41.50L408.71-41.50L408.71-41.50Q416.56-36.71 419.55-32.78L419.55-32.78L419.55-32.78Q422.54-28.86 422.54-23.47L422.54-23.47L422.54-23.47Q422.54-18.09 419.95-13.17L419.95-13.17L419.95-13.17Q417.35-8.25 412.70-4.79L412.70-4.79L412.70-4.79Q402.72 2.66 386.76 2.66L386.76 2.66L386.76 2.66Q378.12 2.66 371.47-1.86L371.47-1.86L371.47-1.86Q364.82-6.25 364.82-11.44L364.82-11.44L364.82-11.44Q364.82-16.63 368.61-19.68L368.61-19.68L368.61-19.68Q372.40-22.74 377.99-22.74L377.99-22.74L377.99-22.74Q383.57-22.74 387.03-20.62L387.03-20.62L387.03-20.62Q385.30-16.23 385.30-13.30L385.30-13.30L385.30-13.30Q385.30-4.52 392.75-4.52L392.75-4.52L392.75-4.52Q395.94-4.52 398.07-6.52L398.07-6.52L398.07-6.52Q400.20-8.51 400.20-11.97L400.20-11.97L400.20-11.97Q400.20-18.75 388.76-25.94L388.76-25.94L388.76-25.94Q379.45-32.05 377.32-34.45L377.32-34.45L377.32-34.45Q373.73-38.70 373.73-44.02L373.73-44.02L373.73-44.02Q373.73-49.34 376.26-54.40L376.26-54.40L376.26-54.40Q378.78-59.45 383.44-63.04L383.44-63.04L383.44-63.04Q393.15-70.49 410.04-70.49L410.04-70.49L410.04-70.49Q418.68-70.49 423.80-67.03L423.80-67.03L423.80-67.03Q428.93-63.57 428.93-57.72L428.93-57.72L428.93-57.72Q428.93-51.87 425.40-48.55L425.40-48.55L425.40-48.55Q421.88-45.22 415.49-45.22L415.49-45.22L415.49-45.22Q411.10-45.22 408.98-46.68ZM473.61-46.68L473.61-46.68L473.61-46.68Q475.48-51.60 475.48-55.86L475.48-55.86L475.48-55.86Q475.48-63.71 469.09-63.71L469.09-63.71L469.09-63.71Q465.77-63.71 463.04-60.71L463.04-60.71L463.04-60.71Q460.31-57.72 460.31-54.00L460.31-54.00L460.31-54.00Q460.31-51.34 462.44-49.21L462.44-49.21L462.44-49.21Q465.50-46.28 473.35-41.50L473.35-41.50L473.35-41.50Q481.19-36.71 484.19-32.78L484.19-32.78L484.19-32.78Q487.18-28.86 487.18-23.47L487.18-23.47L487.18-23.47Q487.18-18.09 484.59-13.17L484.59-13.17L484.59-13.17Q481.99-8.25 477.34-4.79L477.34-4.79L477.34-4.79Q467.36 2.66 451.40 2.66L451.40 2.66L451.40 2.66Q442.76 2.66 436.11-1.86L436.11-1.86L436.11-1.86Q429.46-6.25 429.46-11.44L429.46-11.44L429.46-11.44Q429.46-16.63 433.25-19.68L433.25-19.68L433.25-19.68Q437.04-22.74 442.62-22.74L442.62-22.74L442.62-22.74Q448.21-22.74 451.67-20.62L451.67-20.62L451.67-20.62Q449.94-16.23 449.94-13.30L449.94-13.30L449.94-13.30Q449.94-4.52 457.39-4.52L457.39-4.52L457.39-4.52Q460.58-4.52 462.71-6.52L462.71-6.52L462.71-6.52Q464.84-8.51 464.84-11.97L464.84-11.97L464.84-11.97Q464.84-18.75 453.40-25.94L453.40-25.94L453.40-25.94Q444.09-32.05 441.96-34.45L441.96-34.45L441.96-34.45Q438.37-38.70 438.37-44.02L438.37-44.02L438.37-44.02Q438.37-49.34 440.90-54.40L440.90-54.40L440.90-54.40Q443.42-59.45 448.08-63.04L448.08-63.04L448.08-63.04Q457.79-70.49 474.68-70.49L474.68-70.49L474.68-70.49Q483.32-70.49 488.44-67.03L488.44-67.03L488.44-67.03Q493.56-63.57 493.56-57.72L493.56-57.72L493.56-57.72Q493.56-51.87 490.04-48.55L490.04-48.55L490.04-48.55Q486.51-45.22 480.13-45.22L480.13-45.22L480.13-45.22Q475.74-45.22 473.61-46.68Z" fill="url(#editing-outline-gradient)"></path></g></g><style>text {
  font-size: 64px;
  font-family: Arial Black;
  dominant-baseline: central;
  text-anchor: middle;
}</style></svg>